<svg xmlns="http://www.w3.org/2000/svg" xmlns:xlink="http://www.w3.org/1999/xlink" width="500" zoomAndPan="magnify" viewBox="0 0 375 374.999991" height="500" preserveAspectRatio="xMidYMid meet" version="1.0"><defs><clipPath id="4fff825c51"><path d="M 56 37.84375 L 316 37.84375 L 316 340.84375 L 56 340.84375 Z M 56 37.84375 " clip-rule="nonzero"/></clipPath></defs><g clip-path="url(#4fff825c51)"><path fill="#5966f2" d="M 277.019531 60.667969 C 262.890625 44.691406 237.351562 37.84375 204.675781 37.84375 L 109.855469 37.84375 C 103.171875 37.84375 97.488281 42.667969 96.441406 49.203125 L 56.953125 297.628906 C 56.171875 302.527344 59.996094 306.964844 65.003906 306.964844 L 123.539062 306.964844 L 138.242188 214.453125 L 137.785156 217.347656 C 138.835938 210.808594 144.480469 205.984375 151.15625 205.984375 L 178.96875 205.984375 C 233.625 205.984375 276.410156 183.964844 288.910156 120.265625 C 289.28125 118.371094 289.882812 114.75 289.882812 114.75 C 293.429688 91.175781 289.855469 75.179688 277.019531 60.667969 Z M 304.699219 126.816406 C 291.105469 189.53125 247.757812 222.722656 178.96875 222.722656 L 154.023438 222.722656 L 135.421875 340.550781 L 175.878906 340.550781 C 181.722656 340.550781 186.691406 336.332031 187.605469 330.609375 L 188.085938 328.113281 L 197.390625 269.632812 L 197.992188 266.40625 C 198.898438 260.683594 203.875 256.464844 209.710938 256.464844 L 217.101562 256.464844 C 264.902344 256.464844 302.335938 237.195312 313.273438 181.480469 C 317.660156 159.117188 315.550781 140.371094 304.699219 126.816406 Z M 304.699219 126.816406 " fill-opacity="1" fill-rule="evenodd"/></g></svg>