<svg xmlns="http://www.w3.org/2000/svg" xmlns:xlink="http://www.w3.org/1999/xlink" width="128" zoomAndPan="magnify" viewBox="0 0 96 95.999999" height="128" preserveAspectRatio="xMidYMid meet" version="1.0"><defs><clipPath id="8bc46d2838"><path d="M 5.050781 7.8125 L 65 7.8125 L 65 88.0625 L 5.050781 88.0625 Z M 5.050781 7.8125 " clip-rule="nonzero"/></clipPath><clipPath id="ddde700bfa"><path d="M 31 7.8125 L 91.300781 7.8125 L 91.300781 88.0625 L 31 88.0625 Z M 31 7.8125 " clip-rule="nonzero"/></clipPath><clipPath id="15b1a811d9"><path d="M 5.050781 7.8125 L 65 7.8125 L 65 88.0625 L 5.050781 88.0625 Z M 5.050781 7.8125 " clip-rule="nonzero"/></clipPath><clipPath id="8c6a196fca"><path d="M 31 7.8125 L 91.300781 7.8125 L 91.300781 88.0625 L 31 88.0625 Z M 31 7.8125 " clip-rule="nonzero"/></clipPath></defs><g clip-path="url(#8bc46d2838)"><path fill="#ffffff" d="M 30.554688 74.363281 C 23.878906 74.363281 18.472656 68.953125 18.472656 62.277344 L 18.472656 33.710938 C 18.472656 27.035156 23.878906 21.625 30.554688 21.625 L 64.648438 67.238281 L 64.648438 43.832031 L 37.417969 7.835938 L 16.773438 7.835938 C 10.097656 7.835938 4.6875 13.246094 4.6875 19.921875 L 4.6875 76.070312 C 4.6875 82.746094 10.097656 88.15625 16.773438 88.15625 L 49.839844 88.15625 L 39.546875 74.367188 L 30.554688 74.367188 Z M 30.554688 74.363281 " fill-opacity="1" fill-rule="nonzero"/></g><g clip-path="url(#ddde700bfa)"><path fill="#ffffff" d="M 91.300781 76.070312 L 91.300781 19.921875 C 91.300781 13.246094 85.894531 7.835938 79.21875 7.835938 L 46.144531 7.835938 L 56.4375 21.625 L 65.429688 21.625 C 72.105469 21.625 77.515625 27.035156 77.515625 33.710938 L 77.515625 62.285156 C 77.515625 68.957031 72.105469 74.367188 65.429688 74.367188 L 31.34375 28.757812 L 31.34375 52.160156 L 58.574219 88.15625 L 79.21875 88.15625 C 85.894531 88.148438 91.300781 82.742188 91.300781 76.070312 Z M 91.300781 76.070312 " fill-opacity="1" fill-rule="nonzero"/></g><g clip-path="url(#15b1a811d9)"><path fill="#ffffff" d="M 30.554688 74.363281 C 23.878906 74.363281 18.472656 68.953125 18.472656 62.277344 L 18.472656 33.710938 C 18.472656 27.035156 23.878906 21.625 30.554688 21.625 L 64.648438 67.238281 L 64.648438 43.832031 L 37.417969 7.835938 L 16.773438 7.835938 C 10.097656 7.835938 4.6875 13.246094 4.6875 19.921875 L 4.6875 76.070312 C 4.6875 82.746094 10.097656 88.15625 16.773438 88.15625 L 49.839844 88.15625 L 39.546875 74.367188 L 30.554688 74.367188 Z M 30.554688 74.363281 " fill-opacity="1" fill-rule="nonzero"/></g><g clip-path="url(#8c6a196fca)"><path fill="#ffffff" d="M 91.300781 76.070312 L 91.300781 19.921875 C 91.300781 13.246094 85.894531 7.835938 79.21875 7.835938 L 46.144531 7.835938 L 56.4375 21.625 L 65.429688 21.625 C 72.105469 21.625 77.515625 27.035156 77.515625 33.710938 L 77.515625 62.285156 C 77.515625 68.957031 72.105469 74.367188 65.429688 74.367188 L 31.34375 28.757812 L 31.34375 52.160156 L 58.574219 88.15625 L 79.21875 88.15625 C 85.894531 88.148438 91.300781 82.742188 91.300781 76.070312 Z M 91.300781 76.070312 " fill-opacity="1" fill-rule="nonzero"/></g></svg>