<svg xmlns="http://www.w3.org/2000/svg" xmlns:xlink="http://www.w3.org/1999/xlink" width="128" zoomAndPan="magnify" viewBox="0 0 96 95.999999" height="128" preserveAspectRatio="xMidYMid meet" version="1.0"><defs><clipPath id="9e654e1935"><path d="M 7.625 7.082031 L 88.625 7.082031 L 88.625 88.832031 L 7.625 88.832031 Z M 7.625 7.082031 " clip-rule="nonzero"/></clipPath></defs><g clip-path="url(#9e654e1935)"><path fill="#6f6f6f" d="M 35.886719 72.402344 C 35.617188 72.402344 35.351562 72.375 35.089844 72.324219 C 34.828125 72.269531 34.570312 72.195312 34.324219 72.089844 C 34.078125 71.988281 33.839844 71.863281 33.617188 71.714844 C 33.394531 71.566406 33.191406 71.394531 33 71.207031 C 32.8125 71.015625 32.640625 70.8125 32.492188 70.589844 C 32.34375 70.367188 32.21875 70.128906 32.117188 69.882812 C 32.011719 69.636719 31.9375 69.378906 31.882812 69.117188 C 31.832031 68.855469 31.804688 68.589844 31.804688 68.320312 C 31.804688 68.054688 31.832031 67.789062 31.882812 67.527344 C 31.9375 67.261719 32.011719 67.007812 32.117188 66.761719 C 32.21875 66.511719 32.34375 66.277344 32.492188 66.054688 C 32.640625 65.832031 32.8125 65.625 33 65.4375 C 33.191406 65.246094 33.394531 65.078125 33.617188 64.929688 C 33.839844 64.78125 34.078125 64.65625 34.324219 64.550781 C 34.570312 64.449219 34.828125 64.371094 35.089844 64.320312 C 35.351562 64.269531 35.617188 64.242188 35.886719 64.242188 L 60.109375 64.242188 C 60.375 64.242188 60.640625 64.269531 60.90625 64.320312 C 61.167969 64.371094 61.421875 64.449219 61.667969 64.550781 C 61.917969 64.65625 62.152344 64.78125 62.375 64.929688 C 62.597656 65.078125 62.804688 65.246094 62.992188 65.4375 C 63.183594 65.625 63.351562 65.832031 63.5 66.054688 C 63.648438 66.277344 63.777344 66.511719 63.878906 66.761719 C 63.980469 67.007812 64.058594 67.261719 64.109375 67.527344 C 64.164062 67.789062 64.1875 68.054688 64.1875 68.320312 C 64.1875 68.589844 64.164062 68.855469 64.109375 69.117188 C 64.058594 69.378906 63.980469 69.636719 63.878906 69.882812 C 63.777344 70.128906 63.648438 70.367188 63.5 70.589844 C 63.351562 70.8125 63.183594 71.015625 62.992188 71.207031 C 62.804688 71.394531 62.597656 71.566406 62.375 71.714844 C 62.152344 71.863281 61.917969 71.988281 61.667969 72.089844 C 61.421875 72.195312 61.167969 72.269531 60.90625 72.324219 C 60.640625 72.375 60.375 72.402344 60.109375 72.402344 Z M 7.625 58.558594 L 7.625 48.492188 C 7.625 43.476562 7.625 40.957031 8.390625 38.210938 C 8.703125 37.015625 9.140625 35.867188 9.703125 34.765625 C 10.222656 33.625 10.851562 32.546875 11.585938 31.535156 C 13.234375 29.296875 15.226562 27.726562 19.125 24.644531 L 29.695312 16.484375 C 35.757812 11.683594 38.78125 9.347656 42.722656 8.269531 C 46.230469 7.320312 49.742188 7.320312 53.25 8.269531 C 57.179688 9.347656 60.238281 11.726562 66.339844 16.527344 L 76.839844 24.742188 C 78.636719 26.152344 79.980469 27.207031 81.261719 28.339844 C 82.429688 29.324219 83.476562 30.421875 84.40625 31.632812 C 85.117188 32.660156 85.746094 33.738281 86.289062 34.863281 C 86.835938 35.96875 87.273438 37.117188 87.605469 38.308594 C 87.996094 39.753906 88.21875 41.226562 88.28125 42.722656 C 88.367188 44.445312 88.367188 46.167969 88.367188 48.449219 L 88.367188 58.515625 C 88.367188 68.269531 88.367188 73.15625 86.214844 77.496094 C 85.242188 79.4375 83.984375 81.179688 82.445312 82.714844 C 80.945312 84.230469 79.246094 85.484375 77.355469 86.472656 C 74.839844 87.652344 72.195312 88.304688 69.421875 88.433594 C 66.523438 88.679688 63.070312 88.679688 58.492188 88.679688 L 37.5 88.679688 C 27.8125 88.679688 22.976562 88.679688 18.640625 86.527344 C 16.738281 85.535156 15.035156 84.277344 13.527344 82.75 C 12.023438 81.226562 10.785156 79.503906 9.820312 77.589844 C 8.625 75.070312 7.972656 72.414062 7.863281 69.625 C 7.625 66.695312 7.625 63.21875 7.625 58.609375 Z M 15.699219 48.492188 L 15.699219 58.558594 C 15.699219 63.046875 15.699219 66.40625 15.914062 68.925781 C 15.960938 70.652344 16.339844 72.300781 17.046875 73.875 C 17.613281 75.023438 18.347656 76.050781 19.253906 76.957031 C 20.148438 77.867188 21.164062 78.617188 22.300781 79.207031 C 24.894531 80.53125 29.082031 80.53125 37.5 80.53125 L 58.492188 80.53125 C 62.949219 80.53125 66.277344 80.53125 68.773438 80.316406 C 70.484375 80.28125 72.125 79.921875 73.695312 79.238281 C 74.832031 78.640625 75.847656 77.878906 76.742188 76.957031 C 77.644531 76.042969 78.386719 75.019531 78.96875 73.875 C 80.292969 71.261719 80.292969 67.019531 80.292969 58.558594 L 80.292969 48.492188 C 80.292969 46.089844 80.292969 44.304688 80.230469 43.109375 C 80.210938 42.183594 80.089844 41.273438 79.863281 40.375 C 79.667969 39.660156 79.40625 38.972656 79.078125 38.308594 C 78.773438 37.652344 78.414062 37.027344 78 36.433594 C 77.402344 35.699219 76.730469 35.039062 75.988281 34.453125 C 75.105469 33.6875 73.726562 32.613281 71.84375 31.125 L 61.347656 22.878906 C 56.09375 18.789062 53.464844 16.722656 51.152344 16.078125 C 50.09375 15.792969 49.015625 15.652344 47.921875 15.644531 C 46.824219 15.644531 45.75 15.789062 44.691406 16.078125 C 42.34375 16.722656 39.71875 18.789062 34.476562 22.878906 L 24.097656 31.125 C 20.71875 33.773438 19.039062 35.132812 18.058594 36.507812 C 17.617188 37.101562 17.230469 37.726562 16.894531 38.382812 C 16.582031 39.058594 16.328125 39.757812 16.140625 40.480469 C 15.699219 42 15.699219 44.152344 15.699219 48.492188 Z M 15.699219 48.492188 " fill-opacity="1" fill-rule="nonzero"/><path fill="#6f6f6f" d="M 35.886719 72.402344 C 35.617188 72.402344 35.351562 72.375 35.089844 72.324219 C 34.828125 72.269531 34.570312 72.195312 34.324219 72.089844 C 34.078125 71.988281 33.839844 71.863281 33.617188 71.714844 C 33.394531 71.566406 33.191406 71.394531 33 71.207031 C 32.8125 71.015625 32.640625 70.8125 32.492188 70.589844 C 32.34375 70.367188 32.21875 70.128906 32.117188 69.882812 C 32.011719 69.636719 31.9375 69.378906 31.882812 69.117188 C 31.832031 68.855469 31.804688 68.589844 31.804688 68.320312 C 31.804688 68.054688 31.832031 67.789062 31.882812 67.527344 C 31.9375 67.261719 32.011719 67.007812 32.117188 66.761719 C 32.21875 66.511719 32.34375 66.277344 32.492188 66.054688 C 32.640625 65.832031 32.8125 65.625 33 65.4375 C 33.191406 65.246094 33.394531 65.078125 33.617188 64.929688 C 33.839844 64.78125 34.078125 64.65625 34.324219 64.550781 C 34.570312 64.449219 34.828125 64.371094 35.089844 64.320312 C 35.351562 64.269531 35.617188 64.242188 35.886719 64.242188 L 60.109375 64.242188 C 60.375 64.242188 60.640625 64.269531 60.90625 64.320312 C 61.167969 64.371094 61.421875 64.449219 61.667969 64.550781 C 61.917969 64.65625 62.152344 64.78125 62.375 64.929688 C 62.597656 65.078125 62.804688 65.246094 62.992188 65.4375 C 63.183594 65.625 63.351562 65.832031 63.5 66.054688 C 63.648438 66.277344 63.777344 66.511719 63.878906 66.761719 C 63.980469 67.007812 64.058594 67.261719 64.109375 67.527344 C 64.164062 67.789062 64.1875 68.054688 64.1875 68.320312 C 64.1875 68.589844 64.164062 68.855469 64.109375 69.117188 C 64.058594 69.378906 63.980469 69.636719 63.878906 69.882812 C 63.777344 70.128906 63.648438 70.367188 63.5 70.589844 C 63.351562 70.8125 63.183594 71.015625 62.992188 71.207031 C 62.804688 71.394531 62.597656 71.566406 62.375 71.714844 C 62.152344 71.863281 61.917969 71.988281 61.667969 72.089844 C 61.421875 72.195312 61.167969 72.269531 60.90625 72.324219 C 60.640625 72.375 60.375 72.402344 60.109375 72.402344 Z M 7.625 58.558594 L 7.625 48.492188 C 7.625 43.476562 7.625 40.957031 8.390625 38.210938 C 8.703125 37.015625 9.140625 35.867188 9.703125 34.765625 C 10.222656 33.625 10.851562 32.546875 11.585938 31.535156 C 13.234375 29.296875 15.226562 27.726562 19.125 24.644531 L 29.695312 16.484375 C 35.757812 11.683594 38.78125 9.347656 42.722656 8.269531 C 46.230469 7.320312 49.742188 7.320312 53.25 8.269531 C 57.179688 9.347656 60.238281 11.726562 66.339844 16.527344 L 76.839844 24.742188 C 78.636719 26.152344 79.980469 27.207031 81.261719 28.339844 C 82.429688 29.324219 83.476562 30.421875 84.40625 31.632812 C 85.117188 32.660156 85.746094 33.738281 86.289062 34.863281 C 86.835938 35.96875 87.273438 37.117188 87.605469 38.308594 C 87.996094 39.753906 88.21875 41.226562 88.28125 42.722656 C 88.367188 44.445312 88.367188 46.167969 88.367188 48.449219 L 88.367188 58.515625 C 88.367188 68.269531 88.367188 73.15625 86.214844 77.496094 C 85.242188 79.4375 83.984375 81.179688 82.445312 82.714844 C 80.945312 84.230469 79.246094 85.484375 77.355469 86.472656 C 74.839844 87.652344 72.195312 88.304688 69.421875 88.433594 C 66.523438 88.679688 63.070312 88.679688 58.492188 88.679688 L 37.5 88.679688 C 27.8125 88.679688 22.976562 88.679688 18.640625 86.527344 C 16.738281 85.535156 15.035156 84.277344 13.527344 82.75 C 12.023438 81.226562 10.785156 79.503906 9.820312 77.589844 C 8.625 75.070312 7.972656 72.414062 7.863281 69.625 C 7.625 66.695312 7.625 63.21875 7.625 58.609375 Z M 15.699219 48.492188 L 15.699219 58.558594 C 15.699219 63.046875 15.699219 66.40625 15.914062 68.925781 C 15.960938 70.652344 16.339844 72.300781 17.046875 73.875 C 17.613281 75.023438 18.347656 76.050781 19.253906 76.957031 C 20.148438 77.867188 21.164062 78.617188 22.300781 79.207031 C 24.894531 80.53125 29.082031 80.53125 37.5 80.53125 L 58.492188 80.53125 C 62.949219 80.53125 66.277344 80.53125 68.773438 80.316406 C 70.484375 80.28125 72.125 79.921875 73.695312 79.238281 C 74.832031 78.640625 75.847656 77.878906 76.742188 76.957031 C 77.644531 76.042969 78.386719 75.019531 78.96875 73.875 C 80.292969 71.261719 80.292969 67.019531 80.292969 58.558594 L 80.292969 48.492188 C 80.292969 46.089844 80.292969 44.304688 80.230469 43.109375 C 80.210938 42.183594 80.089844 41.273438 79.863281 40.375 C 79.667969 39.660156 79.40625 38.972656 79.078125 38.308594 C 78.773438 37.652344 78.414062 37.027344 78 36.433594 C 77.402344 35.699219 76.730469 35.039062 75.988281 34.453125 C 75.105469 33.6875 73.726562 32.613281 71.84375 31.125 L 61.347656 22.878906 C 56.09375 18.789062 53.464844 16.722656 51.152344 16.078125 C 50.09375 15.792969 49.015625 15.652344 47.921875 15.644531 C 46.824219 15.644531 45.75 15.789062 44.691406 16.078125 C 42.34375 16.722656 39.71875 18.789062 34.476562 22.878906 L 24.097656 31.125 C 20.71875 33.773438 19.039062 35.132812 18.058594 36.507812 C 17.617188 37.101562 17.230469 37.726562 16.894531 38.382812 C 16.582031 39.058594 16.328125 39.757812 16.140625 40.480469 C 15.699219 42 15.699219 44.152344 15.699219 48.492188 Z M 15.699219 48.492188 " fill-opacity="1" fill-rule="nonzero"/></g></svg>